<?xml version="1.0" standalone="no"?>
<!DOCTYPE svg PUBLIC "-//W3C//DTD SVG 20010904//EN"
 "http://www.w3.org/TR/2001/REC-SVG-20010904/DTD/svg10.dtd">
<svg version="1.0" xmlns="http://www.w3.org/2000/svg"
 width="225.000000pt" height="225.000000pt" viewBox="0 0 225.000000 225.000000"
 preserveAspectRatio="xMidYMid meet">
<metadata>
Created by potrace 1.11, written by Peter Selinger 2001-2013
</metadata>
<g transform="translate(0.000000,225.000000) scale(0.100000,-0.100000)"
fill="#000000" stroke="none">
<path d="M1571 2234 c0 -11 3 -14 6 -6 3 7 2 16 -1 19 -3 4 -6 -2 -5 -13z"/>
<path d="M1258 2233 c7 -3 16 -2 19 1 4 3 -2 6 -13 5 -11 0 -14 -3 -6 -6z"/>
<path d="M980 2226 c0 -3 9 -10 20 -16 11 -6 20 -8 20 -6 0 3 -9 10 -20 16
-11 6 -20 8 -20 6z"/>
<path d="M1560 2198 c0 -7 -3 -24 -7 -37 -3 -14 -2 -22 3 -18 10 6 18 67 9 67
-3 0 -5 -6 -5 -12z"/>
<path d="M1030 2196 c0 -2 7 -7 16 -10 8 -3 12 -2 9 4 -6 10 -25 14 -25 6z"/>
<path d="M1077 2135 c-10 -14 -14 -25 -9 -25 6 0 12 7 16 15 3 8 9 15 14 15 8
0 86 -113 150 -220 23 -37 30 -34 11 3 -7 12 -41 66 -75 120 -35 53 -64 102
-64 107 0 18 -25 10 -43 -15z"/>
<path d="M1168 2133 c7 -3 16 -2 19 1 4 3 -2 6 -13 5 -11 0 -14 -3 -6 -6z"/>
<path d="M1025 2100 c-3 -6 1 -7 9 -4 18 7 21 14 7 14 -6 0 -13 -4 -16 -10z"/>
<path d="M1280 2095 c14 -8 30 -14 35 -14 6 0 -1 6 -15 14 -14 8 -29 14 -35
14 -5 0 1 -6 15 -14z"/>
<path d="M1541 2094 c0 -11 3 -14 6 -6 3 7 2 16 -1 19 -3 4 -6 -2 -5 -13z"/>
<path d="M1331 2076 c10 -9 149 -76 149 -71 0 5 -136 75 -146 75 -4 0 -5 -2
-3 -4z"/>
<path d="M1532 2035 c0 -16 2 -22 5 -12 2 9 2 23 0 30 -3 6 -5 -1 -5 -18z"/>
<path d="M1755 1990 c21 -24 26 -25 19 -6 -3 8 -13 17 -22 21 -13 5 -13 2 3
-15z"/>
<path d="M1843 1902 c69 -62 76 -66 73 -45 -2 10 -9 18 -17 18 -8 1 -13 7 -11
14 1 7 -1 10 -6 7 -11 -7 -54 23 -48 33 3 4 -4 7 -14 8 -13 1 -6 -9 23 -35z"/>
<path d="M630 1921 c0 -10 19 -25 25 -20 1 2 -3 10 -11 17 -8 7 -14 8 -14 3z"/>
<path d="M1940 1826 c0 -2 7 -7 16 -10 8 -3 12 -2 9 4 -6 10 -25 14 -25 6z"/>
<path d="M1358 1778 c3 -13 17 -34 31 -48 l25 -25 -17 25 c-9 14 -22 35 -27
48 -5 12 -11 22 -14 22 -2 0 -2 -10 2 -22z"/>
<path d="M1371 1714 c0 -11 3 -14 6 -6 3 7 2 16 -1 19 -3 4 -6 -2 -5 -13z"/>
<path d="M967 1695 c-4 -16 -11 -39 -14 -50 -5 -18 -5 -18 11 -2 11 11 16 29
14 49 l-3 33 -8 -30z"/>
<path d="M2201 1664 c-18 -8 -58 -14 -89 -14 -66 0 -63 -7 10 -24 l53 -13 -37
-7 c-21 -5 -56 -6 -78 -4 -45 4 -40 -6 17 -33 l38 -17 -35 -1 c-19 0 -62 11
-95 24 -33 14 -60 25 -61 25 -1 0 5 -24 13 -52 22 -84 28 -214 12 -283 l-14
-60 -4 70 -3 70 -18 -72 c-26 -111 -14 -273 35 -443 28 -99 91 -234 105 -225
5 3 8 0 5 -7 -2 -7 7 -26 21 -43 15 -16 23 -25 20 -18 -4 6 -2 14 3 17 5 4 8
-2 6 -11 -1 -10 2 -24 8 -30 5 -7 5 -13 0 -13 -13 0 -136 129 -167 175 -21 31
-26 35 -21 15 33 -142 14 -434 -41 -619 -8 -29 -14 -57 -12 -63 2 -6 12 20 22
58 9 38 26 94 37 124 12 30 24 69 29 85 l8 30 2 -30 c1 -27 2 -28 11 -10 8 18
9 17 5 -5 -2 -14 -1 -36 3 -50 7 -24 7 -24 20 8 7 18 17 32 22 32 5 0 9 7 9
17 0 23 10 10 16 -20 2 -14 8 -36 13 -49 8 -19 10 -15 12 27 l2 50 6 -45 c5
-42 6 -39 11 30 6 71 7 69 9 -45 2 -66 6 -142 11 -170 7 -46 8 -43 10 40 2 93
15 215 19 180 2 -11 5 -15 8 -7 3 7 23 12 49 12 l44 0 0 699 c0 385 -3 702 -8
705 -4 2 -22 -2 -41 -10z m-45 -1160 c1 -9 0 -13 -4 -10 -3 4 -7 14 -8 22 -1
9 0 13 4 10 3 -4 7 -14 8 -22z"/>
<path d="M1333 1605 c0 -22 2 -30 4 -17 2 12 2 30 0 40 -3 9 -5 -1 -4 -23z"/>
<path d="M410 1495 c-24 -25 -42 -45 -39 -45 3 0 25 20 49 45 24 25 42 45 39
45 -3 0 -25 -20 -49 -45z"/>
<path d="M340 1510 c-9 -6 -10 -10 -3 -10 6 0 15 5 18 10 8 12 4 12 -15 0z"/>
<path d="M1602 1495 c0 -16 2 -22 5 -12 2 9 2 23 0 30 -3 6 -5 -1 -5 -18z"/>
<path d="M531 1467 c2 -1 13 -9 24 -17 19 -14 19 -14 6 3 -7 9 -18 17 -24 17
-6 0 -8 -1 -6 -3z"/>
<path d="M275 1410 c-3 -6 1 -7 9 -4 18 7 21 14 7 14 -6 0 -13 -4 -16 -10z"/>
<path d="M143 1373 c-1 -19 1 -22 8 -12 11 17 12 39 2 39 -5 0 -9 -12 -10 -27z"/>
<path d="M1504 1281 c4 -6 0 -11 -9 -11 -9 0 -15 -6 -12 -12 2 -7 15 -13 28
-13 30 0 34 38 5 43 -11 3 -16 0 -12 -7z"/>
<path d="M867 1233 c6 -16 5 -17 -11 -3 -17 13 -18 12 -15 -5 6 -28 54 -28 54
0 0 11 -8 21 -17 23 -14 3 -16 -1 -11 -15z"/>
<path d="M1713 1215 c0 -22 2 -30 4 -17 2 12 2 30 0 40 -3 9 -5 -1 -4 -23z"/>
<path d="M1721 1154 c0 -11 3 -14 6 -6 3 7 2 16 -1 19 -3 4 -6 -2 -5 -13z"/>
<path d="M2 1108 c2 -19 10 -24 45 -26 24 -2 43 -6 43 -10 0 -4 -20 -6 -45 -4
l-44 4 0 -231 0 -231 48 0 c47 0 49 1 55 33 7 41 36 395 36 448 l0 39 -71 0
c-67 0 -70 -1 -67 -22z m85 -110 c-3 -7 -5 -2 -5 12 0 14 2 19 5 13 2 -7 2
-19 0 -25z m-16 -45 c0 -15 2 -15 9 2 6 15 8 9 8 -25 0 -25 -2 -37 -5 -26 -4
15 -9 9 -24 -23 -10 -22 -24 -41 -31 -41 -11 0 -11 2 0 8 13 9 6 42 -9 42 -5
0 -9 18 -9 40 0 38 2 40 30 40 22 0 30 -5 31 -17z"/>
<path d="M320 1074 c-6 -14 -9 -46 -9 -72 2 -46 2 -45 9 14 4 33 10 66 14 72
4 7 5 12 1 12 -3 0 -10 -12 -15 -26z"/>
<path d="M1741 1084 c0 -11 3 -14 6 -6 3 7 2 16 -1 19 -3 4 -6 -2 -5 -13z"/>
<path d="M1752 1035 c0 -16 2 -22 5 -12 2 9 2 23 0 30 -3 6 -5 -1 -5 -18z"/>
<path d="M320 943 c0 -16 71 -93 86 -93 8 0 37 -12 65 -26 28 -14 56 -23 62
-21 6 2 -27 19 -72 38 -66 27 -90 42 -112 73 -16 21 -29 35 -29 29z"/>
<path d="M534 915 c-10 -8 -14 -15 -8 -15 6 0 17 7 24 15 16 19 9 19 -16 0z"/>
<path d="M1279 883 c-13 -16 -12 -17 4 -4 16 13 21 21 13 21 -2 0 -10 -8 -17
-17z"/>
<path d="M1719 873 c-13 -16 -12 -17 4 -4 16 13 21 21 13 21 -2 0 -10 -8 -17
-17z"/>
<path d="M167 732 c-10 -159 -28 -262 -72 -407 -20 -65 -34 -119 -32 -121 2
-2 18 44 36 103 17 60 36 116 42 126 13 23 41 304 37 371 -2 31 -6 3 -11 -72z"/>
<path d="M381 804 c0 -11 3 -14 6 -6 3 7 2 16 -1 19 -3 4 -6 -2 -5 -13z"/>
<path d="M1619 781 c-13 -10 -37 -25 -54 -34 -16 -9 -25 -16 -19 -17 12 0 104
57 104 65 0 8 -6 6 -31 -14z"/>
<path d="M372 755 c0 -16 2 -22 5 -12 2 9 2 23 0 30 -3 6 -5 -1 -5 -18z"/>
<path d="M610 766 c0 -2 15 -13 33 -23 21 -13 40 -17 57 -12 l25 7 -25 1 c-14
1 -38 8 -54 16 -30 16 -36 18 -36 11z"/>
<path d="M1067 753 c18 -2 50 -2 70 0 21 2 7 4 -32 4 -38 0 -55 -2 -38 -4z"/>
<path d="M1343 753 c9 -2 23 -2 30 0 6 3 -1 5 -18 5 -16 0 -22 -2 -12 -5z"/>
<path d="M344 640 c0 -63 1 -89 3 -57 2 31 2 83 0 115 -2 31 -3 5 -3 -58z"/>
<path d="M1502 723 c9 -2 19 -12 21 -21 3 -12 5 -10 6 6 1 17 -4 22 -21 21
-16 -1 -18 -3 -6 -6z"/>
<path d="M1055 650 c11 -5 29 -8 40 -8 16 0 15 2 -5 8 -34 11 -60 11 -35 0z"/>
<path d="M502 605 c-2 -42 -40 -141 -91 -237 -36 -66 -38 -96 -13 -155 18 -44
31 -56 28 -25 -1 15 7 17 54 14 73 -4 137 -33 142 -64 2 -12 4 40 4 117 0 138
18 249 46 282 7 9 6 14 -3 17 -8 2 -36 12 -62 21 -38 13 -54 15 -72 7 -22 -10
-24 -9 -28 26 l-4 37 -1 -40z"/>
<path d="M1185 629 c-5 -7 5 -8 32 -3 51 9 54 14 10 14 -20 0 -39 -5 -42 -11z"/>
<path d="M620 620 c8 -5 20 -10 25 -10 6 0 3 5 -5 10 -8 5 -19 10 -25 10 -5 0
-3 -5 5 -10z"/>
<path d="M1063 613 c20 -2 54 -2 75 0 20 2 3 4 -38 4 -41 0 -58 -2 -37 -4z"/>
<path d="M1549 570 c-14 -8 -12 -27 12 -182 15 -95 33 -197 38 -227 6 -29 11
-56 11 -58 0 -7 85 54 104 76 11 11 25 21 33 21 8 0 23 21 35 46 33 76 23 108
-69 222 -43 53 -77 99 -76 102 3 9 -72 10 -88 0z"/>
<path d="M738 553 c6 -2 18 -2 25 0 6 3 1 5 -13 5 -14 0 -19 -2 -12 -5z"/>
<path d="M788 543 c7 -3 16 -2 19 1 4 3 -2 6 -13 5 -11 0 -14 -3 -6 -6z"/>
<path d="M1490 535 c-14 -8 -20 -14 -14 -15 5 0 19 7 30 15 24 18 16 19 -16 0z"/>
<path d="M831 530 c13 -8 15 -17 9 -42 -36 -144 -61 -266 -70 -338 -6 -47 -13
-100 -16 -118 l-5 -32 361 0 360 0 0 45 c0 25 -14 100 -30 168 -44 178 -46
182 -59 179 -17 -3 -26 29 -10 38 18 12 9 19 -32 25 l-34 6 27 -13 c19 -9 25
-17 19 -26 -8 -13 -12 -13 -131 24 -12 4 -13 6 0 14 8 5 11 12 7 16 -3 4 -13
1 -22 -6 -12 -10 -18 -10 -30 0 -8 7 -15 9 -15 4 0 -5 -30 -8 -67 -8 l-68 2
65 -8 c42 -4 52 -7 29 -8 -20 -1 -58 -9 -85 -17 -62 -19 -78 -19 -71 -1 3 8 0
17 -7 19 -7 3 -16 15 -19 26 -5 20 -1 21 56 22 61 2 61 2 -22 10 -46 4 -97 13
-114 18 -37 13 -47 14 -26 1z m93 -53 c7 -19 6 -31 -1 -38 -9 -9 -16 -2 -27
26 -20 47 -20 47 1 43 10 -2 22 -16 27 -31z m279 -67 c-12 -53 -21 -57 -38
-16 -21 51 -15 69 19 53 20 -10 24 -17 19 -37z m-256 3 c4 -11 -26 -27 -35
-19 -2 3 -2 12 2 21 6 18 27 16 33 -2z m263 -119 c0 -25 -7 -28 -34 -18 -22 8
-20 42 2 47 25 5 32 -1 32 -29z"/>
<path d="M1378 493 c-10 -2 -18 -12 -18 -21 0 -12 3 -13 8 -5 4 7 19 16 32 22
25 10 10 13 -22 4z"/>
<path d="M1268 483 c7 -3 16 -2 19 1 4 3 -2 6 -13 5 -11 0 -14 -3 -6 -6z"/>
<path d="M1268 463 c6 -2 18 -2 25 0 6 3 1 5 -13 5 -14 0 -19 -2 -12 -5z"/>
<path d="M988 453 c6 -2 18 -2 25 0 6 3 1 5 -13 5 -14 0 -19 -2 -12 -5z"/>
<path d="M352 360 c0 -19 2 -27 5 -17 2 9 2 25 0 35 -3 9 -5 1 -5 -18z"/>
<path d="M143 240 c0 -47 2 -66 4 -42 2 23 2 61 0 85 -2 23 -4 4 -4 -43z"/>
<path d="M31 129 c-6 -18 -9 -34 -7 -36 2 -2 9 10 15 28 6 18 9 34 7 36 -2 2
-9 -10 -15 -28z"/>
<path d="M426 75 c-3 -9 -6 -31 -5 -48 1 -28 2 -26 10 12 9 46 6 65 -5 36z"/>
<path d="M631 54 c0 -11 3 -14 6 -6 3 7 2 16 -1 19 -3 4 -6 -2 -5 -13z"/>
<path d="M1900 34 c0 -27 3 -29 40 -31 37 -2 40 0 40 22 0 17 -6 25 -17 25
-10 0 -28 3 -40 6 -20 6 -23 3 -23 -22z"/>
<path d="M591 14 c0 -11 3 -14 6 -6 3 7 2 16 -1 19 -3 4 -6 -2 -5 -13z"/>
</g>
</svg>
